<svg width="111" height="124" viewBox="0 0 111 124" fill="none" xmlns="http://www.w3.org/2000/svg">
    <path d="M107.01 62.58H94.3C92.24 62.58 90.57 60.91 90.57 58.85V35.02C90.57 32.96 88.9 31.29 86.84 31.29H79.48C77.42 31.29 75.75 29.62 75.75 27.56V3.73C75.75 1.67 74.08 0 72.02 0H64.66C62.6 0 60.93 1.67 60.93 3.73V37.68C60.93 39.74 59.26 41.41 57.2 41.41H49.84C47.78 41.41 46.11 39.74 46.11 37.68V18.55C46.11 16.49 44.44 14.82 42.38 14.82H35.02C32.96 14.82 31.29 16.49 31.29 18.55V27.56C31.29 29.62 29.62 31.29 27.56 31.29H20.2C18.14 31.29 16.47 32.96 16.47 35.02V58.85C16.47 60.91 14.8 62.58 12.74 62.58H3.73C1.67 62.58 0 64.24 0 66.3V73.66C0 75.72 1.67 77.39 3.73 77.39H12.74C14.8 77.39 16.47 79.06 16.47 81.12V104.95C16.47 107.01 18.14 108.68 20.2 108.68H27.56C29.62 108.68 31.29 107.01 31.29 104.95V95.94C31.29 93.88 32.96 92.21 35.02 92.21H42.38C44.44 92.21 46.11 93.88 46.11 95.94V119.36C46.11 121.42 47.78 123.09 49.84 123.09H57.2C59.26 123.09 60.93 121.42 60.93 119.36V86.68C60.93 84.62 62.6 82.95 64.66 82.95H72.02C74.08 82.95 75.75 84.62 75.75 86.68V104.95C75.75 107.01 77.42 108.68 79.48 108.68H86.84C88.9 108.68 90.57 107.01 90.57 104.95V81.12C90.57 79.06 92.24 77.39 94.3 77.39H107.01C109.07 77.39 110.74 75.72 110.74 73.66V66.3C110.74 64.24 109.07 62.58 107.01 62.58Z" fill="#FA4616"/>
</svg>
